<svg height="512pt" viewBox="0 0 512 512" width="512pt" xmlns="http://www.w3.org/2000/svg"><path d="m512 256c0 141.386719-114.613281 256-256 256s-256-114.613281-256-256 114.613281-256 256-256 256 114.613281 256 256zm0 0" fill="#68fcdf"/><path d="m512 256c0 141.378906-114.621094 256-256 256s-256-114.621094-256-256c0-46.21875 12.25-89.570312 33.679688-127 44.121093 77.070312 127.160156 129 222.320312 129s178.210938-51.929688 222.320312-129c21.429688 37.429688 33.679688 80.78125 33.679688 127zm0 0" fill="#10e2c4"/><path d="m481.261719 377.699219v.011719c-43.292969 79.96875-127.941407 134.289062-225.261719 134.289062s-181.96875-54.320312-225.261719-134.289062v-.011719zm0 0" fill="#1aba9f"/><g fill="#323b5a"><path d="m417.433594 236.488281-71.609375 35.132813h35.804687l54.019532-26.503906c-1.085938-4.691407-.914063-3.933594-2-8.628907zm0 0"/><path d="m417.433594 399.332031-71.609375 35.132813h35.804687l54.019532-26.503906c-1.085938-4.691407-.914063-3.9375-2-8.628907zm0 0"/><path d="m313.410156 172.582031h-203.265625v-51.65625h175.617188zm0 0"/></g><path d="m381.628906 172.578125v306.523437c-37.109375 20.949219-79.980468 32.898438-125.628906 32.898438-3.390625 0-6.761719-.070312-10.121094-.199219-50.328125-1.949219-96.9375-18.449219-135.730468-45.390625v-345.480468h108.082031l27.648437 51.648437zm0 0" fill="#545d7a"/><path d="m110.148438 298.359375h271.480468v80.960937h-271.480468zm0 0" fill="#545d7a"/><path d="m381.628906 172.578125v306.523437c-37.109375 20.949219-79.980468 32.898438-125.628906 32.898438h-10.121094v-339.421875zm0 0" fill="#474f6f"/><path d="m381.628906 379.320312v99.78125c-37.109375 20.949219-79.980468 32.898438-125.628906 32.898438h-10.121094v-.199219c-50.328125-1.949219-96.9375-18.449219-135.730468-45.390625v-87.089844zm0 0" fill="#474f6f"/><path d="m110.148438 217.398438h271.480468v80.960937h-271.480468zm0 0" fill="#474f6f"/><path d="m245.882812 217.398438h135.746094v80.960937h-135.746094zm0 0" fill="#323b5a"/><path d="m139.597656 217.398438h211.4375v53.882812h-211.4375zm0 0" fill="#fff"/><path d="m245.882812 217.398438h105.152344v53.882812h-105.152344zm0 0" fill="#d0f6ff"/><path d="m139.597656 379.320312h211.4375v53.882813h-211.4375zm0 0" fill="#fff"/><path d="m245.882812 379.320312h105.152344v53.882813h-105.152344zm0 0" fill="#d0f6ff"/><path d="m381.628906 379.320312v99.78125c-37.109375 20.949219-79.980468 32.898438-125.628906 32.898438h-10.121094v-132.679688zm0 0" fill="#323b5a"/><path d="m245.882812 379.320312h105.152344v53.882813h-105.152344zm0 0" fill="#d0f6ff"/><path d="m285.761719 217.398438-11.4375 19.089843h-56.871094l-11.4375-19.089843zm0 0" fill="#474f6f"/><path d="m285.761719 217.398438-11.4375 19.089843h-28.441407v-19.089843zm0 0" fill="#323b5a"/><path d="m285.761719 379.320312-11.4375 19.089844h-56.871094l-11.4375-19.089844zm0 0" fill="#474f6f"/><path d="m285.761719 379.320312-11.4375 19.089844h-28.441407v-19.089844zm0 0" fill="#323b5a"/><path d="m148.519531 194.992188c0-4.929688-3.996093-8.929688-8.925781-8.929688-4.925781 0-8.921875 4-8.921875 8.929688 0 4.929687 3.996094 8.925781 8.921875 8.925781 4.929688 0 8.925781-3.996094 8.925781-8.925781zm0 0" fill="#dd1265"/><path d="m148.519531 194.992188c0 4.925781-3.992187 8.925781-8.925781 8.925781v-17.855469c4.933594 0 8.925781 4 8.925781 8.929688zm0 0" fill="#ba0d5c"/><path d="m173.328125 194.992188c0-4.929688-3.996094-8.929688-8.925781-8.929688-4.925782 0-8.921875 4-8.921875 8.929688 0 4.929687 3.996093 8.925781 8.921875 8.925781 4.929687 0 8.925781-3.996094 8.925781-8.925781zm0 0" fill="#ffd112"/><path d="m173.328125 194.992188c0 4.925781-3.992187 8.925781-8.925781 8.925781v-17.855469c4.933594 0 8.925781 4 8.925781 8.929688zm0 0" fill="#ff9f00"/><path d="m198.816406 194.992188c0-4.929688-3.996094-8.929688-8.925781-8.929688-4.925781 0-8.921875 4-8.921875 8.929688 0 4.929687 3.996094 8.925781 8.921875 8.925781 4.929687 0 8.925781-3.996094 8.925781-8.925781zm0 0" fill="#95d600"/><path d="m198.816406 194.992188c0 4.925781-3.992187 8.925781-8.925781 8.925781v-17.855469c4.933594 0 8.925781 4 8.925781 8.929688zm0 0" fill="#85af12"/><path d="m110.148438 328.347656h135.734374v22.417969h-135.734374zm0 0" fill="#474f6f"/><path d="m245.882812 328.347656h135.746094v22.417969h-135.746094zm0 0" fill="#323b5a"/></svg>